HIERARCHY
ROOT root
{
	OFFSET 0.000000 0.000000 0.000000
	CHANNELS 6 Xposition Yposition Zposition Zrotation Yrotation Xrotation
	JOINT lhip
	{
		OFFSET 0.058581 -0.082280 -0.017664
		CHANNELS 3 Zrotation Yrotation Xrotation
		JOINT lknee
		{
			OFFSET 0.043451 -0.386469 0.008037
			CHANNELS 3 Zrotation Yrotation Xrotation
			JOINT lankle
			{
				OFFSET -0.014790 -0.426874 -0.037428
				CHANNELS 3 Zrotation Yrotation Xrotation
				JOINT ltoe
				{
					OFFSET 0.041054 -0.060286 0.122042
					CHANNELS 3 Zrotation Yrotation Xrotation
					End Site
					{
						OFFSET 0.000000 0.000000 0.000000
					}
				}
			}
		}
	}
	JOINT rhip
	{
		OFFSET -0.060310 -0.090513 -0.013543
		CHANNELS 3 Zrotation Yrotation Xrotation
		JOINT rknee
		{
			OFFSET -0.043257 -0.383688 -0.004843
			CHANNELS 3 Zrotation Yrotation Xrotation
			JOINT rankle
			{
				OFFSET 0.019056 -0.420046 -0.034562
				CHANNELS 3 Zrotation Yrotation Xrotation
				JOINT rtoe
				{
					OFFSET -0.034840 -0.062106 0.130323
					CHANNELS 3 Zrotation Yrotation Xrotation
					End Site
					{
						OFFSET 0.000000 0.000000 0.000000
					}
				}
			}
		}
	}
	JOINT lowerback
	{
		OFFSET 0.004439 0.124404 -0.038385
		CHANNELS 3 Zrotation Yrotation Xrotation
		JOINT upperback
		{
			OFFSET 0.004488 0.137956 0.026820
			CHANNELS 3 Zrotation Yrotation Xrotation
			JOINT chest
			{
				OFFSET -0.002265 0.056032 0.002855
				CHANNELS 3 Zrotation Yrotation Xrotation
				JOINT lowerneck
				{
					OFFSET -0.013390 0.211636 -0.033468
					CHANNELS 3 Zrotation Yrotation Xrotation
					JOINT upperneck
					{
						OFFSET 0.010113 0.088937 0.050410
						CHANNELS 3 Zrotation Yrotation Xrotation
						End Site
						{
							OFFSET 0.000000 0.000000 0.000000
						}
					}
				}
				JOINT lclavicle
				{
					OFFSET 0.071702 0.114000 -0.018898
					CHANNELS 3 Zrotation Yrotation Xrotation
					JOINT lshoulder
					{
						OFFSET 0.122921 0.045205 -0.019046
						CHANNELS 3 Zrotation Yrotation Xrotation
						JOINT lelbow
						{
							OFFSET 0.255332 -0.015649 -0.022946
							CHANNELS 3 Zrotation Yrotation Xrotation
							JOINT lwrist
							{
								OFFSET 0.265709 0.012698 -0.007375
								CHANNELS 3 Zrotation Yrotation Xrotation
								End Site
								{
									OFFSET 0.000000 0.000000 0.000000
								}
							}
						}
					}
				}
				JOINT rclavicle
				{
					OFFSET -0.082954 0.112472 -0.023707
					CHANNELS 3 Zrotation Yrotation Xrotation
					JOINT rshoulder
					{
						OFFSET -0.113228 0.046853 -0.008472
						CHANNELS 3 Zrotation Yrotation Xrotation
						JOINT relbow
						{
							OFFSET -0.260127 -0.014369 -0.031269
							CHANNELS 3 Zrotation Yrotation Xrotation
							JOINT rwrist
							{
								OFFSET -0.269108 0.006794 -0.006027
								CHANNELS 3 Zrotation Yrotation Xrotation
								End Site
								{
									OFFSET 0.000000 0.000000 0.000000
								}
							}
						}
					}
				}
			}
		}
	}
}
MOTION
Frames: 13
Frame Time: 0.033333
0.404532 0.275247 0.974001 88.574979 0.948681 87.163576 5.761811 0.986078 2.391995 -0.263485 -5.613943 5.160351 0.962986 8.195240 -12.983739 0.000000 -0.000000 0.000000 -8.441801 -3.318794 7.109552 0.428625 -3.381398 -4.005174 3.707262 -5.459614 -6.767377 0.000000 -0.000000 0.000000 -0.328844 1.570608 -0.101341 2.007190 -5.004670 7.012116 1.197074 -2.261646 -6.176834 -4.720385 1.443349 15.403872 3.947852 -2.476954 -9.455276 -21.189900 -4.939369 4.044785 -59.220585 -6.730513 14.248834 8.766324 -18.908610 1.673112 -16.253344 -17.062771 5.179836 19.128433 9.956372 2.982130 55.497679 3.364888 12.307393 -7.281345 12.052090 0.816958 16.799889 13.574767 -0.899704 
0.404270 0.274676 0.973940 88.653937 1.015959 87.252763 5.856215 0.895141 2.243371 -0.241315 -5.662549 5.196580 0.833439 8.257947 -12.999382 0.000000 -0.000000 0.000000 -8.313485 -3.349950 7.015607 0.411097 -3.381464 -4.002178 3.754929 -5.486399 -6.802565 0.000000 -0.000000 0.000000 -0.171249 1.553265 0.164559 1.899448 -4.982420 6.539606 1.212316 -2.269030 -5.800785 -4.763935 1.307402 15.363208 4.064943 -2.489478 -9.765405 -21.375869 -4.997435 4.079765 -59.167721 -6.826286 14.244254 8.714387 -19.242185 1.819413 -15.714176 -17.173277 4.760037 19.184958 9.830574 2.921612 55.113052 3.236350 11.987067 -7.412651 11.841340 0.329508 16.344477 13.584524 -1.509634 
0.404035 0.274180 0.973886 88.681098 1.037013 87.312230 5.908074 0.873396 2.171270 -0.224454 -5.664448 5.163691 0.800340 8.255109 -12.955052 0.000000 -0.000000 0.000000 -8.246858 -3.296362 6.950160 0.430380 -3.438808 -4.019515 3.688368 -5.530795 -6.789728 0.000000 -0.000000 0.000000 -0.133273 1.524452 0.351788 1.878952 -4.984566 6.480419 1.209032 -2.273662 -5.709480 -4.742499 1.201948 15.201243 4.151384 -2.509006 -9.935994 -21.451423 -5.025597 4.065698 -59.245643 -6.879160 14.282882 8.733114 -19.517297 1.820162 -15.538626 -17.216627 4.566522 19.109733 9.764176 2.874686 54.949762 3.155400 11.834971 -7.532826 11.969512 -0.027265 16.144625 13.662660 -1.959199 
0.403617 0.273592 0.973761 88.654334 1.065815 87.434594 5.986312 0.881329 2.027114 -0.224039 -5.643242 5.128986 0.767890 8.248792 -12.896697 0.000000 -0.000000 0.000000 -8.181828 -3.272524 6.764910 0.458602 -3.456628 -3.989887 3.665617 -5.537081 -6.766658 0.000000 -0.000000 0.000000 -0.102003 1.483672 0.535132 1.847689 -5.000053 6.394416 1.199655 -2.290852 -5.571872 -4.672363 1.109199 14.985509 4.261188 -2.534169 -10.106057 -21.487525 -5.108808 4.099060 -59.366689 -6.905355 14.333828 8.737578 -19.758954 1.871594 -15.342370 -17.255550 4.328773 19.003349 9.767931 2.794882 54.951744 3.186725 11.793948 -7.569090 12.347280 -0.193890 15.923294 13.743492 -2.443957 
0.403337 0.273286 0.973698 88.616868 1.078403 87.511551 6.020300 0.888498 1.934639 -0.219863 -5.617856 5.120296 0.762505 8.248530 -12.872772 0.000000 -0.000000 0.000000 -8.147460 -3.242302 6.652737 0.469190 -3.458971 -3.990308 3.660498 -5.540852 -6.751404 0.000000 -0.000000 0.000000 -0.099362 1.463347 0.638265 1.830313 -5.011974 6.352871 1.200048 -2.301163 -5.511437 -4.639912 1.041095 14.867089 4.321782 -2.572699 -10.183774 -21.495663 -5.175715 4.132314 -59.446733 -6.919037 14.372528 8.752630 -19.797507 1.943619 -15.302466 -17.255288 4.263738 18.964823 9.831559 2.751563 55.044696 3.259612 11.831153 -7.553839 12.598039 -0.194993 15.840566 13.801095 -2.679272 
0.402955 0.272935 0.973601 88.545948 1.097991 87.617850 6.070067 0.909576 1.788080 -0.227543 -5.565002 5.151788 0.771905 8.238461 -12.859812 0.000000 -0.000000 0.000000 -8.110386 -3.230922 6.502518 0.489050 -3.437902 -4.008460 3.656281 -5.522606 -6.723241 0.000000 -0.000000 0.000000 -0.106165 1.450003 0.758449 1.814209 -5.033008 6.314872 1.209310 -2.307109 -5.451302 -4.614835 0.970056 14.719032 4.381520 -2.638439 -10.264156 -21.483029 -5.279020 4.157460 -59.569373 -6.936807 14.444508 8.781819 -19.721230 2.015935 -15.294773 -17.223014 4.201048 18.957957 9.958821 2.712393 55.246047 3.428165 11.917922 -7.497266 12.954560 -0.197319 15.764042 13.881048 -2.985183 
0.402751 0.272794 0.973556 88.463282 1.120007 87.704965 6.101133 0.941451 1.681402 -0.226587 -5.520275 5.179536 0.791246 8.241904 -12.869237 0.000000 -0.000000 0.000000 -8.082147 -3.187638 6.409781 0.511531 -3.433548 -4.078345 3.653372 -5.506014 -6.691502 0.000000 -0.000000 0.000000 -0.125979 1.444577 0.893676 1.808842 -5.040257 6.272921 1.249335 -2.271929 -5.433665 -4.625442 0.911976 14.569039 4.412024 -2.662735 -10.330614 -21.500974 -5.388178 4.200459 -59.680838 -6.934491 14.513072 8.809992 -19.619334 2.065465 -15.225370 -17.174384 4.051992 18.967016 10.065628 2.669885 55.539881 3.552640 11.975789 -7.432206 13.429441 -0.342917 15.654666 14.014381 -3.550958 
0.402464 0.272806 0.973518 88.389324 1.140397 87.791008 6.115375 0.964160 1.550596 -0.222231 -5.467661 5.245558 0.821037 8.241904 -12.895767 0.000000 -0.000000 0.000000 -8.064818 -3.136027 6.307355 0.524596 -3.416251 -4.127254 3.658898 -5.488189 -6.649342 0.000000 -0.000000 0.000000 -0.145672 1.450717 1.013861 1.804742 -5.040471 6.266349 1.286761 -2.252227 -5.397366 -4.666361 0.846868 14.419854 4.408329 -2.712911 -10.474913 -21.518025 -5.457255 4.203699 -59.755999 -6.920710 14.605812 8.859056 -19.637518 2.072849 -15.068426 -17.088376 3.849832 19.011734 10.160414 2.640615 55.870132 3.732822 12.040064 -7.325123 14.152341 -0.686719 15.494856 14.117432 -4.411632 
0.402235 0.272936 0.973473 88.310817 1.156130 87.877721 6.115103 0.976820 1.436048 -0.223543 -5.411404 5.284869 0.863266 8.245826 -12.912178 0.000000 -0.000000 0.000000 -8.067255 -3.116034 6.179642 0.533585 -3.401837 -4.140130 3.687347 -5.473601 -6.603136 0.000000 -0.000000 0.000000 -0.138367 1.478653 1.126178 1.776066 -5.008394 6.226494 1.304896 -2.289877 -5.296910 -4.693963 0.817932 14.256040 4.393903 -2.765962 -10.668848 -21.483416 -5.500125 4.192683 -59.834049 -6.901675 14.658407 8.949564 -19.783615 2.044367 -14.923310 -17.025424 3.612302 19.027344 10.264836 2.619357 56.278170 3.939171 12.201347 -7.172627 15.056575 -0.867545 15.300363 14.201326 -5.197877 
0.402163 0.273460 0.973453 88.201890 1.166830 87.969745 6.092496 1.016110 1.352149 -0.237233 -5.339704 5.289928 0.927090 8.255342 -12.943951 0.000000 -0.000000 0.000000 -8.082596 -3.086447 6.040159 0.519846 -3.401711 -4.140722 3.727274 -5.431483 -6.556011 0.000000 -0.000000 0.000000 -0.173359 1.519477 1.238199 1.747079 -4.955765 6.231208 1.341598 -2.271251 -5.273617 -4.743390 0.747570 14.124890 4.391501 -2.804984 -10.793472 -21.445634 -5.564774 4.209975 -59.891635 -6.834257 14.711495 9.053629 -20.095934 1.946401 -14.649637 -17.003404 3.347282 19.050271 10.429314 2.642601 56.813739 4.047745 12.442584 -6.875146 16.230756 -0.873075 15.021100 14.533008 -6.005925 
0.402215 0.274087 0.973389 88.145062 1.176647 88.025131 6.057180 1.033207 1.271976 -0.257472 -5.312125 5.356428 0.983610 8.264926 -12.997644 0.000000 -0.000000 0.000000 -8.112313 -3.045587 5.945767 0.504609 -3.412553 -4.107097 3.760175 -5.415621 -6.534925 0.000000 -0.000000 0.000000 -0.194728 1.536731 1.335369 1.715624 -4.920056 6.250053 1.363222 -2.242947 -5.263325 -4.757205 0.675249 13.989218 4.386401 -2.807667 -10.886712 -21.421090 -5.601187 4.206957 -59.867927 -6.780881 14.760764 9.117061 -20.511851 1.982974 -14.402690 -16.992473 3.158166 19.055127 10.562602 2.655510 57.178708 4.147030 12.656890 -6.565071 17.248405 -0.833936 14.858449 14.753884 -6.744946 
0.402440 0.274862 0.973447 88.078733 1.193832 88.094677 6.002154 1.013107 1.170096 -0.270832 -5.277353 5.448282 1.034122 8.302142 -13.019567 0.000000 -0.000000 0.000000 -8.142100 -3.060831 5.813153 0.477979 -3.421146 -4.043238 3.770279 -5.391130 -6.488235 0.000000 -0.000000 0.000000 -0.169827 1.580865 1.391535 1.673464 -4.876462 6.251724 1.359799 -2.219148 -5.237023 -4.775000 0.610987 13.857531 4.409106 -2.846452 -10.987887 -21.412510 -5.679249 4.182312 -59.796038 -6.738658 14.755011 9.162922 -20.879241 1.917628 -14.308443 -17.045107 3.021496 19.047788 10.711826 2.681864 57.489338 4.173029 12.900679 -6.289979 18.307474 -0.541700 14.784232 15.002417 -7.110469 
0.402766 0.275694 0.973628 87.996897 1.209129 88.178228 5.946543 1.002126 1.072491 -0.295435 -5.227627 5.524189 1.089299 8.337424 -13.046509 0.000000 -0.000000 0.000000 -8.176533 -3.144310 5.665584 0.455625 -3.412802 -3.973542 3.797077 -5.341233 -6.461301 0.000000 -0.000000 0.000000 -0.174616 1.661753 1.353551 1.651224 -4.817464 6.304797 1.358839 -2.214668 -5.224033 -4.785084 0.558288 13.747951 4.448665 -2.939920 -11.066272 -21.383031 -5.747243 4.128748 -59.729474 -6.737911 14.703780 9.195834 -21.134996 1.813333 -14.398311 -17.121790 2.973819 19.063337 10.851325 2.712057 57.726745 4.196037 13.150697 -6.044757 19.255388 -0.086701 14.886417 15.235383 -7.158145 
